<svg xmlns="http://www.w3.org/2000/svg" width="132" height="56" viewBox="0 0 132 56"><g><g><path fill="#444" d="M117.955 38.375c-.993 0-1.865-.213-2.617-.637-1.022-.575-1.82-1.469-2.391-2.68-.482-1.002-.663-1.85-.542-2.547.12-.756.21-1.256.271-1.5.127-.338.33-.654.605-.948-.462.426-4.567 4.412-7.005 6.402-1.113.88-2.106 1.319-2.978 1.319-.662 0-1.354-.227-2.075-.682-.873-.575-1.475-.863-1.805-.863-.451 0-1.098.303-1.94.909-.602.424-1.099.636-1.49.636-.751 0-1.098-.516-1.037-1.545.09-1.334 1.534-3.621 4.331-6.863 2.136-2.455 4.271-4.591 6.407-6.41-.932.031-1.617-.15-2.052-.545-.437-.393-.866-.59-1.287-.59-.601 0-1.218.348-1.85 1.045-1.482 1.609-7.141 8.372-8.977 10.09-3.88 3.607-7.43 5.409-10.648 5.409-.993 0-1.866-.213-2.617-.637-1.023-.575-1.82-1.469-2.392-2.68-.481-1.002-.662-1.85-.541-2.547.12-.756.21-1.256.27-1.499.127-.339.331-.655.605-.949-.192.176-1.84 1.922-2.888 2.903-3.881 3.607-7.43 5.409-10.649 5.409-.992 0-1.865-.213-2.616-.637-1.023-.575-1.821-1.469-2.392-2.68-.482-1.002-.662-1.85-.542-2.547.12-.756.21-1.256.272-1.499.126-.339.33-.655.604-.949a7.81 7.81 0 0 1-.328.285c-2.785 3.31-5.638 5.69-8.561 7.118-.843.424-1.655.636-2.437.636-1.144 0-2.053-.41-2.73-1.228-.676-.818-.97-1.665-.88-2.544.21-1.91 1.745-4.666 4.602-8.272 1.113-1.394 1.67-2.485 1.67-3.273 0-.757-.647-1.137-1.94-1.137-3.249 4.273-5.565 7.09-6.948 8.454-.068.068-.136.108-.203.16a25.284 25.284 0 0 1-.63 1.523c-.812 1.848-2.271 3.378-4.376 4.59-2.106 1.212-4.212 1.818-6.317 1.818-1.564 0-2.873-.378-3.925-1.136-1.926-1.394-3.099-2.97-3.52-4.727-2.286 2.848-4.647 4.727-7.083 5.636-1.294.484-2.949.727-4.963.727-1.415 0-2.828-.303-4.242-.91-1.534-.665-2.677-1.529-3.429-2.59-1.173-1.636-1.76-3.303-1.76-5 0-2.393.933-4.256 2.798-5.59.752-.545 1.564-.818 2.436-.818.963 0 1.783.326 2.46.977.676.652 1.015 1.432 1.015 2.34 0 1.152-.422 2-1.264 2.546-1.534 1-2.3 1.939-2.3 2.818 0 .363.135.743.406 1.136.45.697 1.218 1.046 2.3 1.046.842 0 1.73-.257 2.663-.773 1.744-.97 3.278-2.348 4.601-4.136.813-1.121 2.12-3.318 3.926-6.59 2.135-3.849 4.075-7.106 5.82-9.773 2.256-3.484 4.482-6.302 6.678-8.454-.843-.181-1.7-.272-2.572-.272-2.015 0-3.986.425-5.91 1.273-2.979 1.272-5.175 2.697-6.588 4.272-1.234 1.363-2.046 3.045-2.436 5.045-.09.455-.136.894-.136 1.318 0 1.94.903 3.167 2.707 3.681.963.273 1.444.728 1.444 1.364 0 .91-.436 1.516-1.308 1.818-.241.091-.512.136-.812.136-1.234 0-2.272-.575-3.114-1.727-.962-1.332-1.443-2.832-1.443-4.5 0-.908.285-2.469.857-4.68.57-2.121 2.346-4.319 5.324-6.591 3.639-2.727 7.58-4.09 11.82-4.09 1.956 0 3.7.12 5.235.363C36.821 1.09 38.16.408 38.611.286c1.143-.333 1.88-.378 2.21-.136.181.122.272.273.272.455 0 .363-.422.818-1.264 1.363-.33.213-.932.607-1.804 1.182 2.076.758 3.85 2.212 5.324 4.363.57.818.857 1.925.857 3.318 0 2.061-.436 3.652-1.308 4.773-1.113 1.424-2.543 2.576-4.287 3.454 1.023 1 1.715 1.925 2.076 2.772.421.97.632 2.046.632 3.228 0 .384-.029.782-.072 1.187.23-.278.443-.539.633-.778 1.234-1.576 2.286-3.106 3.158-4.59-.692-.576-1.037-1.288-1.037-2.137 0-.697.225-1.5.677-2.41.751-1.454 1.85-2.18 3.293-2.18.542 0 1 .151 1.377.454.375.303.564.772.564 1.409 0 .636-.18 1.333-.542 2.09.781.455 1.955.425 3.519-.09 1.324-.455 2.256-.682 2.797-.682.812 0 1.293.349 1.444 1.045.06.243.09.485.09.727 0 .516-.15 1.084-.45 1.705-.301.621-.603 1.22-.903 1.795a381.285 381.285 0 0 0-3.338 7.363c-.362 1-.362 1.607 0 1.819.51 0 .962-.258 1.353-.773.54-.498 4.536-4.58 5.645-5.91 1.67-1.999 3.377-3.65 5.122-4.953 2.465-1.879 4.661-2.818 6.587-2.818 1.263 0 2.27.379 3.023 1.136.842.849 1.263 1.758 1.263 2.727 0 1.455-.902 3.152-2.707 5.09-2.497 2.667-5.37 4.516-8.618 5.546-.15 1.666.452 2.515 1.805 2.545.842.03 1.91-.333 3.203-1.09 1.174-.728 6.864-6.182 8.534-8.182 1.67-2 3.376-3.651 5.121-4.954 2.466-1.879 4.661-2.818 6.587-2.818 1.263 0 2.27.379 3.023 1.136.842.849 1.263 1.758 1.263 2.727 0 1.455-.902 3.152-2.707 5.09-2.497 2.667-5.37 4.516-8.618 5.546-.15 1.666.452 2.515 1.805 2.545.842.03 1.91-.333 3.204-1.09a15.664 15.664 0 0 0 3.068-2.456c1.143-1.241 5.203-5.574 8.752-9.635 1.655-1.909 2.632-3 2.933-3.272.782-.667 1.654-1.046 2.617-1.137.842-.06 1.714.167 2.616.682 1.144.697 1.76 1.061 1.851 1.091.48.121.826.182 1.038.182.6 0 1.398-.41 2.391-1.227.3-.243.616-.364.947-.364.661 0 .993.288.993.864 0 .424-.242.818-.722 1.181a105.087 105.087 0 0 0-6.362 5.364c-1.805 1.666-2.865 2.727-3.181 3.181-.315.455-.473.849-.473 1.182 0 .272.104.515.316.727.42.091 1.112.318 2.075.682.12.06.466.273 1.038.636.36.243.722.35 1.082.318.437-.029 3.009-2.487 3.039-2.514.026-.026 2.009-2.019 3.384-3.667 1.67-2 3.377-3.651 5.122-4.954 2.465-1.879 4.661-2.818 6.586-2.818 1.264 0 2.271.379 3.023 1.136.843.849 1.264 1.758 1.264 2.727 0 1.455-.902 3.152-2.707 5.09-2.497 2.667-5.37 4.516-8.618 5.546-.15 1.666.452 2.515 1.805 2.545.842.03 1.91-.333 3.203-1.09a15.658 15.658 0 0 0 3.068-2.456c1.143-1.241 1.918-1.991 2.324-2.25.406-.256.654-.385.745-.385.24 0 .54.121.902.364.112.09.183.198.211.322 1.225 2.176-1.599 10.228-13.286 15.342-24.517 10.725-95.393 1.31-97.721 1.172h-.004c-2.18-.129-4.395-.255-4.802-.255-1.082 0-1.849.349-2.3 1.046-.271.395-.406.773-.406 1.137 0 .879.766 1.817 2.3 2.818.842.545 1.264 1.393 1.264 2.545 0 .909-.339 1.689-1.015 2.34-.677.652-1.497.978-2.46.978-.872 0-1.684-.273-2.435-.818-1.866-1.334-2.798-3.197-2.798-5.591 0-1.697.586-3.363 1.76-5 .751-1.06 1.895-1.924 3.429-2.59 1.413-.606 2.827-.91 4.24-.91.591 0 1.142.028 1.668.07l-.001-.003c18.282.107 77.642 4.558 92.536 1.665 9.05-1.757 13.645-5.724 15.962-9.029-3.522 3.053-6.763 4.578-9.723 4.578zm3.925-11.727c0 .394.226.591.678.591.48 0 1.503-.833 3.067-2.5.932-1 1.4-2.045 1.4-3.136 0-.484-.181-.727-.543-.727-.571 0-1.594.985-3.067 2.954-1.024 1.243-1.535 2.182-1.535 2.818zm-37.08 0c0 .394.225.591.677.591.48 0 1.504-.833 3.068-2.5.932-1 1.399-2.045 1.399-3.136 0-.484-.18-.727-.542-.727-.572 0-1.594.985-3.068 2.954-1.023 1.243-1.534 2.182-1.534 2.818zm-18.212 0c0 .394.226.591.678.591.48 0 1.503-.833 3.068-2.5.932-1 1.398-2.045 1.398-3.136 0-.484-.18-.727-.541-.727-.572 0-1.595.985-3.068 2.954-1.024 1.243-1.535 2.182-1.535 2.818zM38.16 10.513c0-1.727-.662-3.015-1.985-3.863a13.878 13.878 0 0 0-1.353-.728 26.851 26.851 0 0 0-2.03 2.319c-.964 1.212-1.941 3.378-2.934 6.499-1.384 4.152-2.511 7.181-3.384 9.09 1.113-.515 1.956-.848 2.527-1 .27-.06.511-.09.722-.09.661 0 .993.317.993.954 0 .636-.482 1.045-1.444 1.227-1.173.212-2.512 1.03-4.016 2.455-.932.878-1.398 1.985-1.398 3.317 0 .728.21 1.289.631 1.682.962.91 1.955 1.364 2.978 1.364 1.143 0 2.346-.652 3.61-1.954.631-.668 1.262-1.667 1.895-3.001.751-1.696 1.127-3.272 1.127-4.727 0-.333-.03-.666-.09-1-.21-1.514-.677-2.454-1.398-2.818 0-.03-.677-.151-2.03-.363-.843 0-1.264-.47-1.264-1.409 0-.97.601-1.56 1.805-1.772a90.53 90.53 0 0 0 2.888-.137c1.924-.242 3.263-1.879 4.015-4.909.09-.364.135-.742.135-1.136z"/></g></g></svg>