<?xml version="1.0" ?><svg style="enable-background:new 0 0 90.684 66.558;" version="1.1" viewBox="0 0 90.684 66.558" xml:space="preserve" xmlns="http://www.w3.org/2000/svg" xmlns:xlink="http://www.w3.org/1999/xlink"><g id="telepnone"><g><path d="M17.861,24.702c5.309-0.676,8.767-0.373,11.548-3.923s2.011-6.335,5.228-8.705c1.793-1.321,19.657-1.202,21.44,0.148    c3.186,2.412,2.379,5.187,5.113,8.773c2.734,3.587,6.196,3.329,11.495,4.075c5.31,0.747,12.638,0.492,15.338-3.193    c2.585-3.529,5.347-9.528-2.519-17.11c-6.247-6.022-73.851-6.49-80.194-0.535c-7.965,7.478-5.283,13.513-2.744,17.075    C5.218,25.028,12.542,25.379,17.861,24.702z"/><path d="M80.876,43.164c-6.835-1.829-10.112,1.717-17.926-5.044c-7.814-6.761-4.312-15.024-9.98-18.038    c-2.506-1.333-13.382-2.452-17.743-0.089c-5.645,3.058-2.078,11.294-9.84,18.115c-7.762,6.821-11.066,3.301-17.886,5.183    C0.68,45.172,6.112,66.558,6.112,66.558l76.334-0.137C82.446,66.421,87.711,44.993,80.876,43.164z M43.919,57.349    c-6.023,0-10.905-4.882-10.905-10.905c0-6.023,4.882-10.905,10.905-10.905s10.905,4.882,10.905,10.905    C54.824,52.467,49.942,57.349,43.919,57.349z"/></g></g><g id="Слой_1"/></svg>